<?xml version="1.0" encoding="utf-8"?>
<!-- Generator: Adobe Illustrator 18.1.0, SVG Export Plug-In . SVG Version: 6.00 Build 0)  -->
<svg version="1.1" id="Layer_1" xmlns="http://www.w3.org/2000/svg" xmlns:xlink="http://www.w3.org/1999/xlink" x="0px" y="0px"
	 viewBox="0 0 595.3 841.9" enable-background="new 0 0 595.3 841.9" xml:space="preserve">
<rect x="49.5" y="178.7" fill="#0D0D0D" width="519.5" height="154"/>
<path fill="#FFFFFF" stroke="#000000" stroke-width="0.4776" stroke-miterlimit="10" d="M84.2,195.2L83.7,317
	c72.4,3.6,98.3-6.4,109.1-42.3c5.5-21.5,2.2-40.9-11.7-57.8c-13-14.3-27.3-18.6-41.9-21.3c23.4,8.4,40.7,27.2,42.6,53.3
	c3.7,35.9-14.4,60.3-81.7,54.9l-0.7-95.5c10.6-0.5,20.6,1.2,30.1,4.8c53.2,26.7,19.5,79.5,5.7,81.7c37.1,0.4,49.8-43.7,25.6-75.5
	C141.8,196.7,115.1,194.2,84.2,195.2z"/>
<rect x="222.3" y="188" fill="#FFFFFF" stroke="#000000" stroke-width="0.8035" stroke-miterlimit="10" width="338.7" height="136.1"/>
<g>
	<path d="M259.5,263.4v-35.8h15.4c4.1,0,7.3,0.7,9.6,2c2.3,1.3,4.1,3.3,5.5,5.8c1.4,2.6,2,5.7,2,9.3c0,3.6-0.6,6.7-1.9,9.6
		s-3.2,5-5.7,6.7c-2.5,1.6-5.9,2.4-10.2,2.4H259.5z M266.9,258.3h5.6c2.9,0,5.1-0.5,6.7-1.4s2.8-2.4,3.7-4.6
		c0.9-2.2,1.3-4.6,1.3-7.2c0-2.5-0.4-4.8-1.3-6.7c-0.9-2-2.1-3.4-3.6-4.4c-1.5-1-4.1-1.5-7.8-1.5h-4.5V258.3z"/>
	<path d="M298.7,232.4v-6h7.2v6H298.7z M298.7,263.4v-26.6h7.2v26.6H298.7z"/>
	<path d="M312,263.4l9.1-13.3l-8.7-13.2h8.2l5.7,8.4l5.5-8.4h5.8l-8.4,13.1l8.9,13.5H330l-5.9-8.8l-6.1,8.8H312z"/>
	<path d="M344.1,232.4v-6h7.2v6H344.1z M344.1,263.4v-26.6h7.2v26.6H344.1z"/>
	<path d="M373.9,263.3c-1.7,0.5-3.1,0.7-4,0.7c-2.3,0-4.2-0.3-5.4-1c-1.3-0.7-2.3-1.6-2.9-2.7s-1-2.8-1-5v-14h-3v-4.5h3v-4.5
		l7.2-0.8v5.3h5.7v4.5h-5.7v13c0,1.9,0.3,3.2,1,3.9c0.7,0.7,1.7,1,3,1c0.6,0,1.3-0.1,2.2-0.3V263.3z"/>
	<path d="M396.1,263.4v-35.8h15.4c4.1,0,7.3,0.7,9.6,2c2.3,1.3,4.1,3.3,5.5,5.8s2,5.7,2,9.3c0,3.6-0.6,6.7-1.9,9.6s-3.2,5-5.7,6.7
		c-2.5,1.6-5.9,2.4-10.2,2.4H396.1z M403.6,258.3h5.6c2.9,0,5.1-0.5,6.7-1.4c1.5-0.9,2.8-2.4,3.7-4.6c0.9-2.2,1.3-4.6,1.3-7.2
		c0-2.5-0.4-4.8-1.3-6.7c-0.9-2-2.1-3.4-3.6-4.4c-1.5-1-4.1-1.5-7.8-1.5h-4.5V258.3z"/>
	<path d="M456.9,262.5c-3.4,1-6.6,1.5-9.6,1.5c-2.9,0-5.4-0.5-7.5-1.6c-2.2-1.1-3.8-2.7-5-5c-1.2-2.3-1.7-4.8-1.7-7.4
		c0-2.5,0.5-4.8,1.5-6.9c1-2.1,2.4-3.8,4.3-5c1.9-1.2,4.2-1.8,7-1.8c3.4,0,6.1,1.1,8.1,3.2c2,2.2,3,6.2,3,12.1h-16.3
		c0.2,1.8,0.6,3.2,1.2,4.2s1.5,1.9,2.6,2.5c1.1,0.6,2.6,0.9,4.4,0.9c2.4,0,5.1-0.6,8.1-1.7V262.5z M440.5,247.5h9.4
		c0-2.4-0.4-4.2-1.2-5.2c-0.8-1-1.8-1.6-3.1-1.6c-1.4,0-2.5,0.6-3.4,1.7C441.2,243.6,440.7,245.3,440.5,247.5z"/>
	<path d="M463.7,262.6v-5.2c3.5,1.5,6.6,2.2,9.1,2.2c1.3,0,2.4-0.3,3.2-0.8c0.8-0.6,1.2-1.3,1.2-2.2c0-0.8-0.3-1.4-0.9-1.9
		c-0.6-0.5-1.5-1-2.7-1.5l-2.4-1c-2.5-1-4.3-2.1-5.5-3.3c-1.2-1.2-1.8-2.7-1.8-4.7c0-2.3,0.9-4.2,2.7-5.7s4.5-2.2,8.2-2.2
		c2.2,0,4.7,0.3,7.7,0.9v5c-2.9-1-5.2-1.5-7.1-1.5c-1.5,0-2.6,0.3-3.3,0.8c-0.7,0.5-1.1,1.2-1.1,2c0,0.6,0.2,1.2,0.7,1.7
		c0.5,0.5,1.3,1,2.6,1.4l2.1,0.8c3.4,1.3,5.7,2.6,6.7,3.8c1,1.2,1.6,2.7,1.6,4.5c0,2.2-1,4.2-2.9,5.9c-1.9,1.7-4.7,2.5-8.4,2.5
		C470.2,264,467,263.5,463.7,262.6z"/>
	<path d="M505.4,260.6c-1,1-1.9,1.7-2.7,2.2c-0.8,0.4-1.5,0.8-2.4,1c-0.8,0.2-1.7,0.3-2.6,0.3c-2.4,0-4.3-0.7-5.7-2.2
		c-1.4-1.5-2.1-3.3-2.1-5.4c0-2.6,1.1-4.8,3.2-6.5c2.1-1.7,5.6-2.6,10.4-2.6h1.9v-2.4c0-1.6-0.5-2.7-1.4-3.3c-0.9-0.6-2-0.8-3.4-0.8
		c-2.7,0-5.5,0.8-8.4,2.4v-4.9c3.2-1.2,6.5-1.8,9.7-1.8c2,0,3.7,0.3,5.3,0.8c1.5,0.5,2.8,1.4,3.7,2.5c0.9,1.1,1.4,2.8,1.4,5v11.8
		c0,1.4,0.2,2.3,0.7,2.6s0.9,0.5,1.3,0.5c0.3,0,0.6,0,1-0.1l0.2,4c-1.5,0.5-2.9,0.7-4,0.7c-1.3,0-2.5-0.2-3.4-0.7
		c-1-0.4-1.7-1.4-2.2-2.8H505.4z M505.4,256.7v-5.4h-1.7c-2.3,0-4.1,0.4-5.2,1.2c-1.1,0.8-1.7,1.9-1.7,3.1c0,1,0.3,1.9,1,2.5
		c0.7,0.7,1.5,1,2.4,1c0.8,0,1.7-0.2,2.6-0.6C503.7,258.1,504.6,257.5,505.4,256.7z"/>
	<path d="M521.5,232.4v-6h7.2v6H521.5z M521.5,263.4v-26.6h7.2v26.6H521.5z"/>
</g>
<g>
	<path d="M262.2,287.9v-16.9h9.6v1.8h-7.2v5.7h6.1v1.8h-6.1v7.7H262.2z"/>
	<path d="M274.6,270.9h2.4v10.7c0,1.9,0.3,3.1,1,3.8s1.7,1,2.9,1c0.8,0,1.4-0.1,2-0.4c0.5-0.3,1-0.7,1.3-1.3
		c0.3-0.6,0.4-1.6,0.4-3.1v-10.8h2.1v10.7c0,1.8-0.2,3.2-0.7,4c-0.5,0.8-1.1,1.5-1.9,1.9c-0.8,0.5-1.9,0.7-3.3,0.7
		c-1.5,0-2.6-0.2-3.5-0.7c-0.9-0.5-1.6-1.2-2-2c-0.5-0.9-0.7-2.2-0.7-3.9V270.9z"/>
	<path d="M291,287.9v-16.9h2.4v15.1h7.5v1.8H291z"/>
	<path d="M303.5,287.9v-16.9h2.4v15.1h7.5v1.8H303.5z"/>
	<path d="M322.4,287.5v-2.4c1.4,0.6,2.4,1,3,1.1c0.6,0.1,1.2,0.2,1.8,0.2c1,0,1.7-0.3,2.3-0.8c0.6-0.5,0.8-1.2,0.8-1.9
		c0-0.6-0.1-1.1-0.4-1.5c-0.3-0.5-1-1-2.2-1.7l-1.2-0.7c-1.6-0.9-2.6-1.7-3.2-2.4c-0.5-0.7-0.8-1.5-0.8-2.4c0-0.8,0.2-1.6,0.6-2.3
		c0.4-0.7,1-1.3,1.7-1.6c0.7-0.4,1.6-0.6,2.7-0.6c1.3,0,2.7,0.2,4.2,0.7v2.2c-1.3-0.5-2.1-0.8-2.6-0.9s-0.9-0.2-1.4-0.2
		c-1,0-1.7,0.3-2.2,0.8c-0.5,0.5-0.7,1-0.7,1.6c0,0.4,0.1,0.7,0.3,1.1c0.2,0.4,0.5,0.7,0.9,1c0.4,0.3,0.9,0.6,1.6,1l1.2,0.7
		c1.6,0.9,2.6,1.7,3.2,2.4c0.5,0.7,0.8,1.6,0.8,2.6c0,1.3-0.5,2.5-1.5,3.4c-1,1-2.5,1.5-4.5,1.5c-0.6,0-1.2,0-1.8-0.1
		S323.6,287.9,322.4,287.5z"/>
	<path d="M340,287.9v-15.1h-6v-1.8h14.4v1.8h-6v15.1H340z"/>
	<path d="M348.9,287.9l6.7-16.9h2.4l6.6,16.9H362l-1.8-4.7h-7.2l-1.9,4.7H348.9z M353.7,281.4h5.8l-2.9-7.3L353.7,281.4z"/>
	<path d="M379.7,287c-0.7,0.4-1.3,0.6-1.9,0.8c-0.5,0.2-1.1,0.3-1.7,0.4s-1.2,0.1-1.9,0.1c-2.9,0-4.9-0.8-6.3-2.5
		c-1.3-1.7-2-3.8-2-6.4c0-2.6,0.7-4.7,2.1-6.4s3.5-2.5,6.3-2.5c1.5,0,3.3,0.2,5.3,0.7v2.3c-1.7-0.6-2.9-0.9-3.5-1s-1.3-0.2-1.8-0.2
		c-2,0-3.5,0.7-4.4,2.1c-0.9,1.4-1.4,3.1-1.4,5.1c0,2.1,0.5,3.8,1.6,5.1c1,1.3,2.5,1.9,4.5,1.9c0.5,0,1.1,0,1.6-0.1
		c0.5-0.1,1.1-0.2,1.6-0.4c0.5-0.2,1.2-0.5,2-0.9V287z"/>
	<path d="M383.2,287.9v-16.9h2.3v8.3l6.9-8.3h2.4l-6.6,8.1l7.8,8.9h-3l-7.4-8.6v8.6H383.2z"/>
	<path d="M405.9,287.9v-16.9h5.6c2.2,0,3.8,0.3,4.9,0.9c1.1,0.6,2,1.5,2.6,2.8c0.6,1.2,1,2.7,1,4.4c0,1.6-0.3,3.1-0.9,4.4
		c-0.6,1.3-1.5,2.4-2.7,3.2c-1.2,0.8-2.8,1.2-5,1.2H405.9z M408.4,286.1h3.1c1.6,0,2.8-0.3,3.6-0.8c0.8-0.5,1.4-1.3,1.9-2.4
		c0.4-1.1,0.7-2.3,0.7-3.7c0-1.2-0.2-2.3-0.6-3.3c-0.4-1-1-1.8-1.9-2.4c-0.9-0.6-2.5-0.9-4.8-0.9h-2V286.1z"/>
	<path d="M423.5,287.9v-16.9h9.5v1.8h-7.1v5.4h5.9v1.8h-5.9v6.1h7.6v1.8H423.5z"/>
	<path d="M440.8,287.9l-6.4-16.9h2.4l5.2,13.9l5.1-13.9h2.1l-6.1,16.9H440.8z"/>
	<path d="M451.5,287.9v-16.9h9.5v1.8h-7.1v5.4h5.9v1.8h-5.9v6.1h7.6v1.8H451.5z"/>
	<path d="M464.2,287.9v-16.9h2.4v15.1h7.5v1.8H464.2z"/>
	<path d="M483.7,288.3c-1.6,0-3-0.4-4.2-1.1c-1.2-0.7-2.1-1.8-2.8-3.1c-0.7-1.4-1-2.9-1-4.7c0-1.7,0.3-3.2,0.9-4.6
		c0.6-1.4,1.5-2.4,2.8-3.2s2.6-1.1,4.2-1.1c1.6,0,3,0.4,4.2,1.1s2.1,1.8,2.8,3.2c0.6,1.4,0.9,2.9,0.9,4.6c0,1.7-0.3,3.2-0.9,4.6
		c-0.6,1.4-1.5,2.4-2.7,3.2C486.7,287.9,485.3,288.3,483.7,288.3z M483.7,286.5c1.7,0,3-0.6,4-1.9c0.9-1.3,1.4-3,1.4-5.2
		c0-2.2-0.5-3.9-1.4-5.2s-2.3-1.9-4-1.9c-1.7,0-3,0.6-4,1.9s-1.4,3-1.4,5.2c0,2.2,0.5,3.9,1.4,5.2
		C480.6,285.8,481.9,286.5,483.7,286.5z"/>
	<path d="M494.9,287.9v-16.9h4.5c1.6,0,2.8,0.2,3.5,0.5c0.7,0.3,1.2,0.8,1.6,1.5c0.4,0.7,0.6,1.5,0.6,2.5c0,1.2-0.2,2.2-0.7,3
		c-0.5,0.9-1.3,1.5-2.4,2c-1.1,0.5-2.3,0.7-3.6,0.7h-1v6.7H494.9z M497.3,279.3h0.9c1.5,0,2.6-0.4,3.3-1.1c0.7-0.7,1-1.6,1-2.7
		c0-0.6-0.1-1.1-0.3-1.5c-0.2-0.4-0.6-0.7-1-1s-1.3-0.4-2.5-0.4h-1.4V279.3z"/>
	<path d="M507.9,287.9v-16.9h9.5v1.8h-7.1v5.4h5.9v1.8h-5.9v6.1h7.6v1.8H507.9z"/>
	<path d="M520.6,287.9v-16.9h5.1c1.9,0,3.2,0.4,3.9,1.3c0.7,0.9,1.1,1.8,1.1,2.9c0,0.6-0.1,1.3-0.4,1.9c-0.3,0.6-0.6,1.2-1.1,1.7
		c-0.5,0.5-1.1,0.9-1.9,1.2l5.7,7.9h-3l-4.8-7.2H523v7.2H520.6z M523,278.9h0.8c1.8,0,3-0.4,3.6-1.1c0.6-0.7,0.9-1.6,0.9-2.4
		c0-0.5-0.1-1-0.3-1.4c-0.2-0.4-0.6-0.7-1.1-0.9s-1.3-0.3-2.4-0.3H523V278.9z"/>
</g>
<g>
</g>
<g>
</g>
<g>
</g>
<g>
</g>
<g>
</g>
<g>
</g>
</svg>
